<?xml version="1.0" standalone="no"?>
<!DOCTYPE svg PUBLIC "-//W3C//DTD SVG 20010904//EN"
 "http://www.w3.org/TR/2001/REC-SVG-20010904/DTD/svg10.dtd">
<svg version="1.0" xmlns="http://www.w3.org/2000/svg"
 width="192.000000pt" height="192.000000pt" viewBox="0 0 192.000000 192.000000"
 preserveAspectRatio="xMidYMid meet">
<metadata>
Created by potrace 1.11, written by Peter Selinger 2001-2013
</metadata>
<g transform="translate(0.000000,192.000000) scale(0.100000,-0.100000)"
fill="#000000" stroke="none">
<path d="M0 960 l0 -960 960 0 960 0 0 960 0 960 -960 0 -960 0 0 -960z m385
383 c-14 -35 -17 -102 -6 -133 8 -24 8 -31 -2 -27 -20 6 -54 64 -62 104 -6 31
-3 40 15 55 30 24 65 24 55 1z m155 -44 c0 -5 -7 -9 -15 -9 -9 0 -12 6 -9 15
6 15 24 11 24 -6z m1148 -4 c18 -40 14 -74 -13 -122 -26 -43 -52 -57 -52 -28
0 8 4 15 9 15 5 0 6 5 2 11 -3 6 -2 14 3 18 12 7 25 93 13 86 -4 -3 -11 2 -14
11 -3 8 -2 12 4 9 6 -3 13 1 16 9 9 23 19 20 32 -9z m-163 6 c7 -12 -12 -24
-25 -16 -11 7 -4 25 10 25 5 0 11 -4 15 -9z m-1080 -32 c0 -17 -33 -25 -47
-11 -6 6 -8 18 -5 26 8 19 52 6 52 -15z m229 11 c19 -15 17 -81 -3 -118 -19
-35 -69 -71 -91 -65 -19 5 -20 7 -5 29 8 13 13 24 9 24 -3 0 4 15 15 34 12 18
21 43 21 54 0 12 8 26 18 31 9 6 11 11 5 11 -7 0 -13 4 -13 9 0 13 25 8 44 -9z
m746 -20 c0 -5 -4 -10 -10 -10 -5 0 -10 5 -10 10 0 6 5 10 10 10 6 0 10 -4 10
-10z"/>
</g>
</svg>
